<?xml version="1.0" encoding="utf-8"?>
<!-- Generator: Adobe Illustrator 23.0.3, SVG Export Plug-In . SVG Version: 6.00 Build 0)  -->
<svg version="1.1" xmlns="http://www.w3.org/2000/svg" xmlns:xlink="http://www.w3.org/1999/xlink" x="0px" y="0px"
	 viewBox="0 0 412 89" style="enable-background:new 0 0 412 89;" xml:space="preserve">
<style type="text/css">
	.st0{fill:#F2F1F0;}
	.st1{fill:#6DBFF2;}
	.st2{fill:#FF2434;}
	.st3{fill:#048ABF;}
	.st4{fill:#0388A6;}
	.st5{fill:#A7D5F2;}
	.st6{fill:#2D2D2D;}
	.st7{fill:#4C4C4C;}
	.st8{fill:#FFFFFF;}
	.st9{stroke:#000000;stroke-width:0.75;stroke-miterlimit:10;}
	.st10{fill:none;stroke:#FFFFFF;stroke-miterlimit:10;}
	.st11{clip-path:url(#SVGID_2_);}
	.st12{opacity:0.68;}
	.st13{clip-path:url(#SVGID_4_);}
</style>
<g id="Layer_1">
</g>
<g id="Backgrounds">
</g>
<g id="Logo">
	<g>
		<path class="st3" d="M30.7,3.6c12.9,0,22.6,6.6,24.4,16.5l-4.3,1.8c-1.5-8.7-9.6-14-20.4-14c-14.6,0-24.5,9.9-24.5,22.3
			c0,12,9.6,18.9,21.9,18.9c10.5,0,17.9-5.1,21.7-13.7l3.8,2.2c-4.6,10-13.5,15.8-25.7,15.8c-14.9,0-26.5-8.6-26.5-23
			C1.2,15.7,13.3,3.6,30.7,3.6z"/>
		<path class="st3" d="M61.9,52.7h-4.7L64,4.3h29.8c9.4,0,15.2,4.8,15.2,12.4c0,7.9-6.1,13.9-16.4,14.3l12.4,21.6h-5.3L87.3,31.1
			H64.9L61.9,52.7z M91,27c8.8,0,13.3-4.6,13.3-10.2c0-5.3-4.1-8.4-11-8.4H68.1L65.4,27H91z"/>
		<path class="st3" d="M161.2,4.3l-0.6,4.1h-38.7l-2.4,17.2h34.8l-0.6,4.1h-34.8l-2.6,18.9H155l-0.6,4.1H111l6.8-48.4H161.2z"/>
		<path class="st2" d="M218.9,4.3h5.3L191,52.7h-5.3L167,4.3h4.9"/>
		<path class="st3" d="M205,52.7h-5.3l33.3-48.4h5l19.1,48.4h-4.8 M235.1,8.8"/>
		<path class="st3" d="M259.6,37.2c2.8,7.2,11.9,12.1,23.3,12.1c10.8,0,17.6-4,17.6-10.4c0-5.7-5.7-7.1-18.3-9.3
			c-12.5-2.1-20.5-3.8-20.5-12c0-8.4,8.6-13.9,21.4-13.9s21.4,5.1,24.2,11.5l-3.7,2.5c-2.6-5.6-9.8-9.8-20.7-9.8
			c-10.4,0-16.6,4-16.6,9.4c0,5.2,4.4,6.4,17,8.4c13.3,2.1,21.9,4.3,21.9,12.9c0,9.3-9,15-22.6,15c-13.2,0-23.9-5.5-26.9-13.5
			L259.6,37.2z"/>
		<path class="st3" d="M311.8,37.2c2.8,7.2,11.9,12.1,23.3,12.1c10.8,0,17.6-4,17.6-10.4c0-5.7-5.7-7.1-18.3-9.3
			c-12.5-2.1-20.5-3.8-20.5-12c0-8.4,8.6-13.9,21.4-13.9s21.4,5.1,24.2,11.5l-3.7,2.5c-2.6-5.6-9.8-9.8-20.7-9.8
			c-10.4,0-16.6,4-16.6,9.4c0,5.2,4.4,6.4,17,8.4c13.3,2.1,21.9,4.3,21.9,12.9c0,9.3-9,15-22.6,15c-13.2,0-23.9-5.5-26.9-13.5
			L311.8,37.2z"/>
		<path class="st3" d="M412,4.3l-0.6,4.1h-38.7l-2.4,17.2h34.8l-0.6,4.1h-34.8l-2.6,18.9h38.7l-0.6,4.1h-43.4l6.8-48.4H412z"/>
	</g>
	<g>
		<path class="st7" d="M0.9,73.9h9.1c2.9,0,4.6,1.3,4.6,3.6c0,1.4-1,2.4-1.8,2.7c1.2,0.5,2.2,1.5,2.2,3.1c0,2.3-1.7,3.7-4.6,3.7H0.9
			V73.9z M9.6,79c1,0,1.5-0.4,1.5-1.1s-0.5-1.1-1.5-1.1H4.3V79H9.6z M4.3,84.1h5.6c1,0,1.5-0.5,1.5-1.2s-0.5-1.2-1.5-1.2H4.3V84.1z"
			/>
		<path class="st7" d="M32.9,87h-3.6V73.9h8.5c3.2,0,5.3,1.6,5.3,4.4c0,1.9-1.1,3.4-2.9,4l3.2,4.7h-4.1l-2.8-4.4h-3.6V87z
			 M37.6,79.9c1.3,0,2-0.6,2-1.5c0-0.9-0.7-1.5-2-1.5h-4.7v2.9H37.6z"/>
		<path class="st7" d="M70.5,73.9v3h-9.2v2h8.2v3h-8.2V84h9.2v3H57.7V73.9H70.5z"/>
		<path class="st7" d="M96.9,73.9l2.7,8.6l2.9-8.6h3.6L101.6,87h-3.9l-2.7-8.6L92.4,87h-3.8l-4.4-13.1h3.7l2.9,8.6l2.7-8.6H96.9z"/>
		<path class="st7" d="M123.7,87h-3.6V73.9h3.6V87z"/>
		<path class="st7" d="M153.2,87H150l-7.6-8.5V87h-3.5V73.9h3.6l7.2,8.1v-8.1h3.5V87z"/>
		<path class="st7" d="M183.1,77.8l-3.5,1.3c-0.5-1.4-1.8-2.3-3.9-2.3c-2.4,0-4.3,1.4-4.3,3.7c0,2.2,1.9,3.7,4.3,3.7
			c2,0,3.6-0.8,4-1.8h-5v-2.8h8.6V87H180v-1.1c-0.7,0.8-2.4,1.4-4.3,1.4c-4.6,0-7.9-2.9-7.9-6.8c0-3.9,3.3-6.8,8.1-6.8
			C179.5,73.7,182.1,75.3,183.1,77.8z"/>
		<path class="st7" d="M224.1,73.7c3.7,0,6.2,1.6,7.2,4.3l-3.3,1.5c-0.5-1.5-1.8-2.7-3.9-2.7c-2.3,0-4.2,1.4-4.2,3.7
			s1.8,3.7,4.2,3.7c2.1,0,3.4-1.1,3.9-2.7l3.3,1.5c-1,2.7-3.5,4.3-7.2,4.3c-4.6,0-7.8-2.9-7.8-6.8S219.6,73.7,224.1,73.7z"/>
		<path class="st7" d="M260.9,80.5c0,3.9-3.3,6.8-7.9,6.8c-4.6,0-7.9-2.9-7.9-6.8s3.3-6.8,7.9-6.8C257.6,73.7,260.9,76.6,260.9,80.5
			z M248.8,80.5c0,2.2,1.8,3.7,4.2,3.7c2.4,0,4.2-1.4,4.2-3.7s-1.8-3.7-4.2-3.7C250.6,76.8,248.8,78.2,248.8,80.5z"/>
		<path class="st7" d="M282.9,87l-4-9.4V87h-3.5V73.9h5.3l3.6,8.7l3.6-8.7h5.3V87h-3.5v-9.4l-4,9.4H282.9z"/>
		<path class="st7" d="M312.1,87h-3.6V73.9h8.4c3.2,0,5.3,1.5,5.3,4.5c0,2.9-2.1,4.5-5.3,4.5h-4.8V87z M316.6,79.9
			c1.3,0,2-0.6,2-1.5c0-0.9-0.7-1.5-2-1.5h-4.6v3H316.6z"/>
		<path class="st7" d="M346.2,73.9l6.4,13.1h-3.9l-1.2-2.5h-6.9l-1.2,2.5h-3.8l6.5-13.1H346.2z M342,81.7h4.1l-2-4.3L342,81.7z"/>
		<path class="st7" d="M381,87h-3.2l-7.6-8.5V87h-3.5V73.9h3.6l7.2,8.1v-8.1h3.5V87z"/>
		<path class="st7" d="M407.4,73.9h4.1l-6.5,7.9V87h-3.6v-5.2l-6.5-7.9h4.3l4.1,4.9L407.4,73.9z"/>
	</g>
</g>
<g id="Layer_4">
</g>
<g id="Layer_5">
</g>
</svg>
